<svg width="145" height="150" viewBox="0 0 145 150" fill="none" xmlns="http://www.w3.org/2000/svg">
<path d="M74.4647 10.9212C65.6343 11.3655 58.6654 18.9215 59.1198 27.7912L61.4597 73.3998L46.2325 79.8523C41.5285 70.9125 30.7193 66.9115 21.2804 70.9125C11.3138 75.1382 6.65628 86.6787 10.8755 96.6948C15.0966 106.709 26.5962 111.405 36.565 107.181C43.4051 104.282 47.743 97.9343 48.428 91.0021L67.077 83.0978L68.1185 103.409C62.2085 107.048 58.4122 113.737 58.7928 121.186C59.3505 132.044 68.5646 140.401 79.3728 139.858C90.1836 139.314 98.4933 130.073 97.9371 119.218C97.4096 108.938 89.1178 100.902 79.062 100.539L78.2102 83.954L120.081 66.2077C128.226 62.7566 131.958 53.161 128.51 44.9791L77.3245 66.6751L74.4647 10.9212ZM37.5932 94.4594C34.6157 99.231 28.3464 100.67 23.5907 97.6729C18.8351 94.676 17.3936 88.3778 20.3709 83.6064C23.349 78.8337 29.6177 77.396 34.3733 80.3929C39.129 83.3898 40.5713 89.6867 37.5932 94.4594ZM86.9637 125.571C83.9862 130.343 77.7169 131.782 72.9612 128.785C68.2056 125.788 66.764 119.49 69.7414 114.718C72.7195 109.946 78.9882 108.508 83.7438 111.505C88.4993 114.502 89.9418 120.799 86.9637 125.571Z" fill="#99BAED"/>
</svg>
