<svg width="102" height="102" viewBox="0 0 102 102" fill="none" xmlns="http://www.w3.org/2000/svg">
<g clip-path="url(#clip0_4_5)">
<path d="M50.5803 7.77576C44.6236 8.29692 40.0962 13.557 40.6169 19.5145L43.2968 50.1482L33.162 54.8735C29.7678 48.9756 22.3668 46.5551 16.0846 49.4849C9.45122 52.5794 6.58174 60.4627 9.67428 67.097C12.768 73.7298 20.6523 76.6012 27.2873 73.5075C31.8398 71.3845 34.6184 67.0038 34.9143 62.3215L47.3265 56.5332L48.5196 70.1754C44.6133 72.7733 42.209 77.3697 42.6457 82.3735C43.2841 89.6661 49.7121 95.0582 57.003 94.4211C64.2956 93.7827 69.6885 87.3552 69.0511 80.0642C68.447 73.1593 62.6501 67.9604 55.8458 67.9689L54.8707 56.8293L82.7388 43.8337C88.1593 41.3065 90.4502 34.7551 87.9231 29.3358L53.8559 45.2237L50.5803 7.77576ZM27.6756 64.9207C25.7785 68.2066 21.5764 69.3325 18.2905 67.4354C15.0045 65.5383 13.8787 61.3361 15.7758 58.0503C17.6733 54.7636 21.8749 53.6384 25.1609 55.5355C28.4468 57.4327 29.5732 61.634 27.6756 64.9207ZM61.7886 84.6158C59.8914 87.9017 55.6894 89.0277 52.4034 87.1305C49.1175 85.2334 47.9916 81.0313 49.8887 77.7454C51.7863 74.4587 55.9879 73.3335 59.2738 75.2306C62.5597 77.1277 63.6861 81.3291 61.7886 84.6158Z" fill="#99BAED"/>
</g>
<defs>
<clipPath id="clip0_4_5">
<rect width="74.2244" height="74.2244" fill="white" transform="translate(0 64.2802) rotate(-60)"/>
</clipPath>
</defs>
</svg>
