<svg width="30" height="30" viewBox="0 0 30 30" fill="none" xmlns="http://www.w3.org/2000/svg">
<path d="M28.8916 0.0731677L25.717 1.51813C25.5137 1.61196 25.3261 1.7402 25.1666 1.8997L19.9935 7.07594L2.17847 4.93976C1.85632 4.90223 1.53105 5.0117 1.30273 5.24314L0.31127 6.2346C-0.214173 6.76005 -0.0515358 7.64829 0.62716 7.95167L13.3942 13.6752L9.72857 17.3408H3.32631C3.04482 17.3408 2.77584 17.4534 2.57568 17.6504L2.04085 18.1884C1.50915 18.7201 1.6843 19.6177 2.37238 19.9117L7.7738 22.2262L10.0882 27.6276C10.3822 28.3157 11.283 28.4908 11.8116 27.9591L12.3495 27.4212C12.5497 27.221 12.6592 26.952 12.6592 26.6706V20.2683L16.3247 16.6027L22.0483 29.3729C22.3517 30.0515 23.2399 30.2142 23.7654 29.6887L24.7568 28.6973C24.9883 28.4658 25.0977 28.1437 25.0602 27.8216L22.9209 10.0066L28.0971 4.83033C28.2567 4.67082 28.3849 4.48629 28.4787 4.27986L29.9237 1.10532C30.2271 0.451611 29.5515 -0.227085 28.8916 0.0731677Z" fill="white"/>
</svg>
